<?xml version="1.0" encoding="UTF-8" standalone="no"?>
<!-- Created with Inkscape (http://www.inkscape.org/) -->
<svg
   xmlns:svg="http://www.w3.org/2000/svg"
   xmlns="http://www.w3.org/2000/svg"
   xmlns:xlink="http://www.w3.org/1999/xlink"
   version="1.0"
   width="423.98856"
   height="220.13029"
   viewBox="0 0 26.451 13.711"
   id="Layer_1"
   xml:space="preserve"><defs
   id="defs148" />
<path
   d="M 26.3605,0.023462862 L 5.2125,0.89846286 L 0.034499999,13.658463 L 25.4125,11.471463 C 25.4125,11.471463 23.6625,8.7004629 25.7765,5.9294629 C 25.7775,5.9284629 24.4645,2.4294629 26.3605,0.023462862 z "
   style="fill:#a2224b"
   id="path3" />
<path
   d="M 26.3605,0.023462862 L 5.2125,0.89846286 L 0.034499999,13.658463 L 25.4125,11.471463 C 25.4125,11.471463 23.6625,8.7004629 25.7765,5.9294629 C 25.7775,5.9284629 24.4645,2.4294629 26.3605,0.023462862 z "
   style="fill:none;stroke:#a2224b;stroke-width:0.069;stroke-miterlimit:3.86400008"
   id="path5" />
<path
   d="M 24.7565,1.0444629 L 5.8695,1.9194629 L 1.6395,12.564463 L 23.9545,10.814463 C 23.9545,10.814463 22.5835,7.7334629 24.7565,6.0024629 C 24.7565,6.0024629 23.1685,3.0294629 24.7565,1.0444629 z "
   style="fill:white"
   id="path7" />
<path
   d="M 24.7565,1.0444629 L 5.8695,1.9194629 L 1.6395,12.564463 L 23.9545,10.814463 C 23.9545,10.814463 22.5835,7.7334629 24.7565,6.0024629 C 24.7565,6.0024629 23.1685,3.0294629 24.7565,1.0444629 z "
   style="fill:none;stroke:white;stroke-width:0.069;stroke-miterlimit:3.86400008"
   id="path9" />
<path
   d="M 23.5685,1.7544629 L 6.5415,2.4834629 L 2.8215,11.779463 L 22.8405,10.212463 C 22.8405,10.212463 22.2935,7.1494629 23.8235,5.9104629 C 23.8235,5.9094629 22.5475,3.2844629 23.5685,1.7544629 z "
   style="fill:#a2224b"
   id="path11" />
<path
   d="M 23.5685,1.7544629 L 6.5415,2.4834629 L 2.8215,11.779463 L 22.8405,10.212463 C 22.8405,10.212463 22.2935,7.1494629 23.8235,5.9104629 C 23.8235,5.9094629 22.5475,3.2844629 23.5685,1.7544629 z "
   style="fill:none;stroke:#a2224b;stroke-width:0.069;stroke-miterlimit:3.86400008"
   id="path13" />
<path
   d="M 22.7295,2.4464629 L 6.9625,3.3044629 L 3.9725,10.887463 L 21.9855,9.3564629 C 21.9855,9.3564629 21.8395,6.9504629 23.0805,6.0754629 C 23.0805,6.0744629 22.0375,3.8674629 22.7295,2.4464629 z "
   style="fill:white"
   id="path15" />
<path
   d="M 22.7295,2.4464629 L 6.9625,3.3044629 L 3.9725,10.887463 L 21.9855,9.3564629 C 21.9855,9.3564629 21.8395,6.9504629 23.0805,6.0754629 C 23.0805,6.0744629 22.0375,3.8674629 22.7295,2.4464629 z "
   style="fill:none;stroke:white;stroke-width:0.069;stroke-miterlimit:3.86400008"
   id="path17" />
<path
   d="M 22.0015,3.2494629 L 7.3285,4.0334629 L 4.9225,10.230463 L 21.4755,8.7724629 C 21.4755,8.7724629 21.7305,6.4574629 22.3875,6.0924629 C 22.3865,6.0924629 21.1955,4.0864629 22.0015,3.2494629 z "
   style="fill:#a2224b"
   id="path19" />
<path
   d="M 22.0015,3.2494629 L 7.3285,4.0334629 L 4.9225,10.230463 L 21.4755,8.7724629 C 21.4755,8.7724629 21.7305,6.4574629 22.3875,6.0924629 C 22.3865,6.0924629 21.1955,4.0864629 22.0015,3.2494629 z "
   style="fill:none;stroke:#a2224b;stroke-width:0.069;stroke-miterlimit:3.86400008"
   id="path21" />
<polygon
   points="9.187,4.222 7.527,4.267 7.044,5.352 7.31,5.261 7.482,5.67 7.765,4.896 8.548,5.734 8.667,5.296 9.187,5.352 8.64,4.577 9.479,4.513 9.187,4.222 "
   transform="translate(-1.74998e-2,-1.453714e-2)"
   style="fill:white;fill-rule:evenodd"
   id="polygon23" />
<polygon
   points="9.187,4.222 7.527,4.267 7.044,5.352 7.31,5.261 7.482,5.67 7.765,4.896 8.548,5.734 8.667,5.296 9.187,5.352 8.64,4.577 9.479,4.513 9.187,4.222 "
   transform="translate(-1.74998e-2,-1.453714e-2)"
   style="fill:none;stroke:white;stroke-width:0.069;stroke-miterlimit:3.86400008"
   id="polygon25" />
<path
   d="M 6.1485,7.6744629 L 5.2225,9.9854629 L 8.4605,9.7354629 L 8.2225,9.4324629 L 8.6965,9.1154629 L 7.7945,9.1374629 L 8.3365,8.6454629 L 10.2855,8.4994629 C 10.2855,8.4994629 9.8795,8.2284629 9.9245,8.2284629 C 9.9695,8.2284629 10.1955,7.8334629 10.1955,7.8334629 L 9.3175,7.9554629 L 10.5895,7.0184629 L 9.9345,6.9854629 L 10.1045,6.4654629 L 8.8335,7.2114629 L 8.9575,6.5454629 L 8.5155,6.8504629 L 8.3125,6.5784629 L 7.8045,7.9674629 L 6.5095,8.7134629 L 6.7805,7.6174629 L 6.2965,7.9674629 L 6.1485,7.6744629 z "
   style="fill:white;fill-rule:evenodd"
   id="path27" />
<path
   d="M 6.1485,7.6744629 L 5.2225,9.9854629 L 8.4605,9.7354629 L 8.2225,9.4324629 L 8.6965,9.1154629 L 7.7945,9.1374629 L 8.3365,8.6454629 L 10.2855,8.4994629 C 10.2855,8.4994629 9.8795,8.2284629 9.9245,8.2284629 C 9.9695,8.2284629 10.1955,7.8334629 10.1955,7.8334629 L 9.3175,7.9554629 L 10.5895,7.0184629 L 9.9345,6.9854629 L 10.1045,6.4654629 L 8.8335,7.2114629 L 8.9575,6.5454629 L 8.5155,6.8504629 L 8.3125,6.5784629 L 7.8045,7.9674629 L 6.5095,8.7134629 L 6.7805,7.6174629 L 6.2965,7.9674629 L 6.1485,7.6744629 z "
   style="fill:none;stroke:white;stroke-width:0.069;stroke-miterlimit:3.86400008"
   id="path29" />
<polygon
   points="12.754,5.282 12.399,5.216 12.303,4.788 12.787,4.934 12.754,5.282 "
   transform="translate(-1.74998e-2,-1.453714e-2)"
   style="fill:#ffd200"
   id="polygon31" />
<polygon
   points="12.754,5.282 12.399,5.216 12.303,4.788 12.787,4.934 12.754,5.282 "
   transform="translate(-1.74998e-2,-1.453714e-2)"
   style="fill:none;stroke:#793f11;stroke-width:0.063;stroke-miterlimit:3.86400008"
   id="polygon33" />
<path
   d="M 12.1665,7.0804629 C 11.6835,7.0804629 11.7255,6.5514629 11.8375,6.1044629 C 11.9395,5.6944629 12.1485,5.0044629 12.7555,5.3094629 C 12.6555,4.7304629 13.2015,4.5874629 13.6645,4.5874629 C 14.0865,4.5874629 14.8315,4.6044629 14.6825,5.2664629 C 15.2125,5.0114629 15.5505,5.5044629 15.6775,5.9474629 C 15.7935,6.3544629 15.9825,7.0744629 15.3045,7.1134629 C 15.7255,7.5234629 15.3295,7.9224629 14.9565,8.1924629 C 14.6135,8.4404629 14.0635,8.8434629 13.7955,8.2204629 C 13.5175,8.7384629 12.9495,8.5144629 12.5875,8.2304629 C 12.2545,7.9704629 11.7155,7.5604629 12.1915,7.0784629 C 12.1925,7.0784629 12.2485,7.0804629 12.1665,7.0804629 z "
   style="fill:#ffd200;fill-rule:evenodd"
   id="path35" />
<path
   d="M 12.1665,7.0804629 C 11.6835,7.0804629 11.7255,6.5514629 11.8375,6.1044629 C 11.9395,5.6944629 12.1485,5.0044629 12.7555,5.3094629 C 12.6555,4.7304629 13.2015,4.5874629 13.6645,4.5874629 C 14.0865,4.5874629 14.8315,4.6044629 14.6825,5.2664629 C 15.2125,5.0114629 15.5505,5.5044629 15.6775,5.9474629 C 15.7935,6.3544629 15.9825,7.0744629 15.3045,7.1134629 C 15.7255,7.5234629 15.3295,7.9224629 14.9565,8.1924629 C 14.6135,8.4404629 14.0635,8.8434629 13.7955,8.2204629 C 13.5175,8.7384629 12.9495,8.5144629 12.5875,8.2304629 C 12.2545,7.9704629 11.7155,7.5604629 12.1915,7.0784629 C 12.1925,7.0784629 12.2485,7.0804629 12.1665,7.0804629 z "
   style="fill:none;stroke:#793f11;stroke-width:0.063;stroke-miterlimit:3.86400008"
   id="path37" />
<g
   transform="translate(-1.74998e-2,-1.453714e-2)"
   id="g39">
	<defs
   id="defs41">
		<path
   d="M 13.135,6.623 C 13.135,6.269 13.422,5.981 13.777,5.981 C 14.131,5.981 14.419,6.27 14.419,6.623 C 14.419,6.976 14.131,7.264 13.777,7.264 C 13.422,7.263 13.135,6.976 13.135,6.623"
   id="XMLID_1_" />
	</defs>
	<clipPath
   id="XMLID_5_">
		<use
   id="use45"
   x="0"
   y="0"
   width="26.451"
   height="13.711"
   xlink:href="#XMLID_1_" />
	</clipPath>
	<path
   d="M 14.422,6.627 L 14.422,6.627 C 14.422,6.981 14.135,7.269 13.781,7.269 C 13.427,7.269 13.14,6.982 13.14,6.627 C 13.14,6.272 13.428,5.986 13.782,5.986 C 14.136,5.986 14.422,6.273 14.422,6.627 M 14.61,6.633 C 14.61,6.178 14.24,5.809 13.785,5.809 C 13.33,5.809 12.961,6.178 12.961,6.633 C 12.961,7.088 13.33,7.457 13.785,7.457 C 14.24,7.457 14.61,7.088 14.61,6.633"
   style="fill:#ffd200"
   clip-path="url(#XMLID_5_)"
   id="path47" />
	<path
   d="M 14.239,6.627 L 14.239,6.627 C 14.239,6.88 14.033,7.085 13.781,7.085 C 13.528,7.085 13.323,6.88 13.323,6.627 C 13.323,6.374 13.528,6.169 13.781,6.169 C 14.033,6.169 14.239,6.375 14.239,6.627 M 14.426,6.633 C 14.426,6.279 14.14,5.992 13.785,5.992 C 13.431,5.992 13.144,6.279 13.144,6.633 C 13.144,6.987 13.431,7.275 13.785,7.275 C 14.14,7.275 14.426,6.988 14.426,6.633"
   style="fill:#ffdb5d"
   clip-path="url(#XMLID_5_)"
   id="path49" />
	<path
   d="M 14.056,6.627 L 14.056,6.627 C 14.056,6.779 13.933,6.901 13.782,6.901 C 13.63,6.901 13.507,6.779 13.507,6.627 C 13.507,6.476 13.63,6.353 13.782,6.353 C 13.933,6.353 14.056,6.476 14.056,6.627 M 14.243,6.633 C 14.243,6.38 14.038,6.175 13.785,6.175 C 13.532,6.175 13.327,6.38 13.327,6.633 C 13.327,6.886 13.532,7.091 13.785,7.091 C 14.038,7.091 14.243,6.886 14.243,6.633"
   style="fill:#ffe693"
   clip-path="url(#XMLID_5_)"
   id="path51" />
	<path
   d="M 13.872,6.627 L 13.872,6.627 C 13.872,6.679 13.831,6.72 13.781,6.72 C 13.73,6.72 13.689,6.679 13.689,6.627 C 13.689,6.577 13.73,6.536 13.781,6.536 C 13.831,6.537 13.872,6.578 13.872,6.627 M 14.061,6.633 C 14.061,6.482 13.938,6.359 13.786,6.359 C 13.634,6.359 13.51,6.482 13.51,6.633 C 13.51,6.785 13.633,6.908 13.785,6.908 C 13.937,6.908 14.061,6.786 14.061,6.633"
   style="fill:#fff1c7"
   clip-path="url(#XMLID_5_)"
   id="path53" />
	<path
   d="M 13.848,6.633 C 13.848,6.582 13.807,6.541 13.755,6.541 C 13.705,6.541 13.663,6.582 13.663,6.633 C 13.663,6.685 13.705,6.726 13.755,6.726 C 13.807,6.726 13.848,6.685 13.848,6.633"
   style="fill:white"
   clip-path="url(#XMLID_5_)"
   id="path55" />
</g>
<path
   d="M 13.9245,7.9854629 L 13.6535,7.9804629 C 13.5825,7.9894629 13.5845,8.1934629 13.4735,8.2684629 C 13.2295,8.4334629 13.0755,8.0334629 12.8185,7.8864629 C 12.6155,7.7704629 12.4095,7.7394629 12.2955,7.5914629 C 12.1835,7.4484629 12.3725,7.3374629 12.5005,7.2064629 L 12.4765,6.9424629 C 12.4445,6.8764629 12.2515,6.9444629 12.1455,6.8654629 C 11.9105,6.6884629 12.2375,6.4134629 12.2925,6.1224629 C 12.3365,5.8924629 12.2985,5.6874629 12.3995,5.5314629 C 12.4995,5.3784629 12.6735,5.5304629 12.8395,5.6084629 L 12.9895,5.4584629 C 13.0445,5.4114629 12.9285,5.2424629 12.9775,5.1194629 C 13.0875,4.8454629 13.4385,5.0914629 13.7335,5.0694629 C 13.9675,5.0524629 14.1555,4.9624629 14.3335,5.0204629 C 14.5065,5.0764629 14.4215,5.2844629 14.3895,5.4654629 M 15.0835,6.8734629 L 15.0085,7.1174629 C 14.9955,7.1884629 15.1915,7.2464629 15.2305,7.3734629 C 15.3175,7.6554629 14.8895,7.6864629 14.6745,7.8894629 C 14.5035,8.0494629 14.4145,8.2374629 14.2385,8.3034629 C 14.0685,8.3684629 13.9955,8.1274629 13.9055,7.9674629 M 14.3915,5.4274629 L 14.6275,5.6014629 M 14.6025,5.5914629 C 14.6655,5.6284629 14.8005,5.4324629 14.9465,5.4404629 C 15.2415,5.4554629 15.1155,5.8704629 15.2275,6.1434629 C 15.3165,6.3604629 15.4595,6.5114629 15.4595,6.6984629 C 15.4595,6.8814629 15.2345,6.8634629 15.0535,6.8884629 M 13.3075,7.0294629 L 13.2615,7.2854629 L 13.5185,7.1784629 M 13.1295,6.5664629 L 12.9125,6.3644629 L 13.2045,6.3434629 M 13.6015,5.9904629 L 13.7625,5.7174629 L 13.9155,5.9994629 M 14.2425,6.9874629 L 14.3045,7.2914629 L 14.0245,7.1704629 M 14.3135,6.3184629 L 14.5905,6.3594629 L 14.4005,6.5624629 M 13.1175,6.6084629 C 13.1175,6.2544629 13.4045,5.9664629 13.7595,5.9664629 C 14.1135,5.9664629 14.4015,6.2554629 14.4015,6.6084629 C 14.4015,6.9614629 14.1135,7.2494629 13.7595,7.2494629 C 13.4045,7.2484629 13.1175,6.9614629 13.1175,6.6084629 z "
   style="fill:none;stroke:#793f11;stroke-width:0.063;stroke-miterlimit:3.86400008"
   id="path57" />
<polygon
   points="14.74,5.249 14.699,4.909 15.102,4.706 15.102,5.183 14.74,5.249 "
   transform="translate(-1.74998e-2,-1.453714e-2)"
   style="fill:#ffd200"
   id="polygon59" />
<polygon
   points="14.74,5.249 14.699,4.909 15.102,4.706 15.102,5.183 14.74,5.249 "
   transform="translate(-1.74998e-2,-1.453714e-2)"
   style="fill:none;stroke:#793f11;stroke-width:0.063;stroke-miterlimit:3.86400008"
   id="polygon61" />
<polygon
   points="12.184,7.111 12,7.484 11.529,7.375 11.835,7.002 12.184,7.111 "
   transform="translate(-1.74998e-2,-1.453714e-2)"
   style="fill:#ffd200"
   id="polygon63" />
<polygon
   points="12.184,7.111 12,7.484 11.529,7.375 11.835,7.002 12.184,7.111 "
   transform="translate(-1.74998e-2,-1.453714e-2)"
   style="fill:none;stroke:#793f11;stroke-width:0.063;stroke-miterlimit:3.86400008"
   id="polygon65" />
<polygon
   points="15.387,7.168 15.71,7.04 15.973,7.392 15.55,7.458 15.387,7.168 "
   transform="translate(-1.74998e-2,-1.453714e-2)"
   style="fill:#ffd200"
   id="polygon67" />
<polygon
   points="15.387,7.168 15.71,7.04 15.973,7.392 15.55,7.458 15.387,7.168 "
   transform="translate(-1.74998e-2,-1.453714e-2)"
   style="fill:none;stroke:#793f11;stroke-width:0.063;stroke-miterlimit:3.86400008"
   id="polygon69" />
<polygon
   points="13.832,8.293 14.048,8.55 13.834,9 13.585,8.525 13.832,8.293 "
   transform="translate(-1.74998e-2,-1.453714e-2)"
   style="fill:#ffd200"
   id="polygon71" />
<polygon
   points="13.832,8.293 14.048,8.55 13.834,9 13.585,8.525 13.832,8.293 "
   transform="translate(-1.74998e-2,-1.453714e-2)"
   style="fill:none;stroke:#793f11;stroke-width:0.063;stroke-miterlimit:3.86400008"
   id="polygon73" />
<path
   d="M 12.7535,5.3334629 C 12.7525,5.3164629 12.7485,5.3324629 12.7455,5.3174629"
   style="fill:none;stroke:#793f11;stroke-width:0.063;stroke-miterlimit:3.86400008"
   id="path75" />
<polygon
   points="13.776,5.791 13.623,6.076 13.259,6.39 12.998,6.407 13.205,6.583 13.354,7.06 13.317,7.248 13.553,7.156 14.024,7.148 14.285,7.259 14.211,6.995 14.343,6.611 14.542,6.398 14.293,6.357 13.909,6.035 13.776,5.791 "
   transform="translate(-1.74998e-2,-1.453714e-2)"
   style="fill:#ffd200;fill-rule:evenodd"
   id="polygon77" />
<polygon
   points="13.776,5.791 13.623,6.076 13.259,6.39 12.998,6.407 13.205,6.583 13.354,7.06 13.317,7.248 13.553,7.156 14.024,7.148 14.285,7.259 14.211,6.995 14.343,6.611 14.542,6.398 14.293,6.357 13.909,6.035 13.776,5.791 "
   transform="translate(-1.74998e-2,-1.453714e-2)"
   style="fill:none;stroke:#793f11;stroke-width:0.063;stroke-miterlimit:3.86400008"
   id="polygon79" />
<circle
   cx="13.771"
   cy="6.6259999"
   r="0.62300003"
   transform="translate(-1.74998e-2,-1.453714e-2)"
   style="fill:#ffd200"
   id="circle81" />
<circle
   cx="13.771"
   cy="6.6259999"
   r="0.62300003"
   transform="translate(-1.74998e-2,-1.453714e-2)"
   style="fill:none;stroke:#793f11;stroke-width:0.063;stroke-miterlimit:3.86400008"
   id="circle83" />
<circle
   cx="13.774"
   cy="6.6300001"
   r="0.373"
   transform="translate(-1.74998e-2,-1.453714e-2)"
   style="fill:#ffd200"
   id="circle85" />
<circle
   cx="13.774"
   cy="6.6300001"
   r="0.373"
   transform="translate(-1.74998e-2,-1.453714e-2)"
   style="fill:none;stroke:#793f11;stroke-width:0.063;stroke-miterlimit:3.86400008"
   id="circle87" />
<polygon
   points="17.619,5.228 17.265,5.163 17.168,4.734 17.652,4.88 17.619,5.228 "
   transform="translate(-1.74998e-2,-1.453714e-2)"
   style="fill:#ffd200"
   id="polygon89" />
<polygon
   points="17.619,5.228 17.265,5.163 17.168,4.734 17.652,4.88 17.619,5.228 "
   transform="translate(-1.74998e-2,-1.453714e-2)"
   style="fill:none;stroke:#793f11;stroke-width:0.063;stroke-miterlimit:3.86400008"
   id="polygon91" />
<path
   d="M 17.0305,7.0264629 C 16.5485,7.0264629 16.5915,6.4994629 16.7015,6.0514629 C 16.8045,5.6424629 17.0145,4.9524629 17.6205,5.2564629 C 17.5205,4.6774629 18.0675,4.5354629 18.5285,4.5354629 C 18.9505,4.5354629 19.6955,4.5514629 19.5475,5.2134629 C 20.0755,4.9584629 20.4155,5.4514629 20.5425,5.8954629 C 20.6575,6.2994629 20.8485,7.0214629 20.1705,7.0604629 C 20.5915,7.4714629 20.1945,7.8684629 19.8215,8.1404629 C 19.4795,8.3874629 18.9295,8.7914629 18.6605,8.1684629 C 18.3835,8.6864629 17.8155,8.4614629 17.4535,8.1764629 C 17.1205,7.9164629 16.5815,7.5084629 17.0575,7.0264629 C 17.0575,7.0264629 17.1135,7.0264629 17.0305,7.0264629 z "
   style="fill:#ffd200;fill-rule:evenodd"
   id="path93" />
<path
   d="M 17.0305,7.0264629 C 16.5485,7.0264629 16.5915,6.4994629 16.7015,6.0514629 C 16.8045,5.6424629 17.0145,4.9524629 17.6205,5.2564629 C 17.5205,4.6774629 18.0675,4.5354629 18.5285,4.5354629 C 18.9505,4.5354629 19.6955,4.5514629 19.5475,5.2134629 C 20.0755,4.9584629 20.4155,5.4514629 20.5425,5.8954629 C 20.6575,6.2994629 20.8485,7.0214629 20.1705,7.0604629 C 20.5915,7.4714629 20.1945,7.8684629 19.8215,8.1404629 C 19.4795,8.3874629 18.9295,8.7914629 18.6605,8.1684629 C 18.3835,8.6864629 17.8155,8.4614629 17.4535,8.1764629 C 17.1205,7.9164629 16.5815,7.5084629 17.0575,7.0264629 C 17.0575,7.0264629 17.1135,7.0264629 17.0305,7.0264629 z "
   style="fill:none;stroke:#793f11;stroke-width:0.063;stroke-miterlimit:3.86400008"
   id="path95" />
<g
   transform="translate(-1.74998e-2,-1.453714e-2)"
   id="g97">
	<defs
   id="defs99">
		<path
   d="M 18,6.568 C 18,6.214 18.287,5.928 18.642,5.928 C 18.996,5.928 19.284,6.215 19.284,6.568 C 19.284,6.922 18.996,7.211 18.642,7.211 C 18.287,7.21 18,6.922 18,6.568"
   id="XMLID_3_" />
	</defs>
	<clipPath
   id="XMLID_6_">
		<use
   id="use103"
   x="0"
   y="0"
   width="26.451"
   height="13.711"
   xlink:href="#XMLID_3_" />
	</clipPath>
	<path
   d="M 19.278,6.564 L 19.278,6.564 C 19.278,6.918 18.991,7.206 18.637,7.206 C 18.283,7.206 17.995,6.919 17.995,6.564 C 17.995,6.21 18.282,5.923 18.637,5.923 C 18.991,5.923 19.278,6.21 19.278,6.564 M 19.469,6.574 C 19.469,6.119 19.101,5.75 18.646,5.75 C 18.191,5.75 17.822,6.119 17.822,6.574 C 17.822,7.029 18.191,7.398 18.646,7.398 C 19.101,7.398 19.469,7.029 19.469,6.574"
   style="fill:#ffd200"
   clip-path="url(#XMLID_6_)"
   id="path105" />
	<path
   d="M 19.096,6.564 L 19.096,6.564 C 19.096,6.818 18.891,7.023 18.638,7.023 C 18.384,7.023 18.18,6.818 18.18,6.564 C 18.18,6.312 18.384,6.106 18.638,6.106 C 18.891,6.106 19.096,6.312 19.096,6.564 M 19.286,6.574 C 19.286,6.22 18.999,5.933 18.645,5.933 C 18.291,5.933 18.003,6.22 18.003,6.574 C 18.003,6.928 18.29,7.215 18.645,7.215 C 18.999,7.214 19.286,6.927 19.286,6.574"
   style="fill:#ffdb5d"
   clip-path="url(#XMLID_6_)"
   id="path107" />
	<path
   d="M 18.912,6.564 L 18.912,6.564 C 18.912,6.716 18.789,6.839 18.638,6.839 C 18.486,6.839 18.363,6.716 18.363,6.564 C 18.363,6.413 18.486,6.29 18.638,6.29 C 18.789,6.29 18.912,6.413 18.912,6.564 M 19.104,6.574 C 19.104,6.32 18.899,6.116 18.646,6.116 C 18.393,6.116 18.188,6.32 18.188,6.574 C 18.188,6.827 18.393,7.032 18.646,7.032 C 18.899,7.032 19.104,6.827 19.104,6.574"
   style="fill:#ffe693"
   clip-path="url(#XMLID_6_)"
   id="path109" />
	<path
   d="M 18.729,6.564 L 18.729,6.564 C 18.729,6.616 18.688,6.657 18.637,6.657 C 18.585,6.657 18.544,6.616 18.544,6.564 C 18.544,6.513 18.585,6.472 18.637,6.472 C 18.688,6.472 18.729,6.513 18.729,6.564 M 18.891,6.574 C 18.891,6.422 18.768,6.299 18.616,6.299 C 18.464,6.299 18.34,6.421 18.34,6.574 C 18.34,6.727 18.463,6.849 18.615,6.849 C 18.767,6.849 18.891,6.726 18.891,6.574"
   style="fill:#fff1c7"
   clip-path="url(#XMLID_6_)"
   id="path111" />
	<path
   d="M 18.707,6.574 C 18.707,6.523 18.666,6.482 18.615,6.482 C 18.564,6.482 18.523,6.523 18.523,6.574 C 18.523,6.624 18.564,6.666 18.615,6.666 C 18.666,6.666 18.707,6.624 18.707,6.574"
   style="fill:white"
   clip-path="url(#XMLID_6_)"
   id="path113" />
</g>
<path
   d="M 18.7895,7.9324629 L 18.5195,7.9284629 C 18.4475,7.9364629 18.4495,8.1414629 18.3395,8.2154629 C 18.0955,8.3814629 17.9415,7.9804629 17.6855,7.8344629 C 17.4815,7.7174629 17.2755,7.6874629 17.1625,7.5394629 C 17.0495,7.3954629 17.2375,7.2854629 17.3655,7.1534629 L 17.3425,6.8894629 C 17.3105,6.8244629 17.1165,6.8924629 17.0115,6.8134629 C 16.7755,6.6364629 17.1045,6.3604629 17.1585,6.0694629 C 17.2015,5.8394629 17.1655,5.6354629 17.2655,5.4784629 C 17.3645,5.3254629 17.5395,5.4784629 17.7055,5.5564629 L 17.8555,5.4064629 C 17.9095,5.3584629 17.7945,5.1894629 17.8435,5.0674629 C 17.9535,4.7924629 18.3045,5.0394629 18.5995,5.0174629 C 18.8335,4.9994629 19.0205,4.9104629 19.1985,4.9684629 C 19.3725,5.0244629 19.2875,5.2314629 19.2555,5.4124629 M 19.9475,6.8184629 L 19.8735,7.0634629 C 19.8595,7.1344629 20.0565,7.1934629 20.0955,7.3194629 C 20.1825,7.6024629 19.7545,7.6314629 19.5395,7.8344629 C 19.3695,7.9964629 19.2785,8.1834629 19.1035,8.2504629 C 18.9345,8.3144629 18.8595,8.0734629 18.7705,7.9124629 M 19.2565,5.3754629 L 19.4915,5.5494629 M 19.4675,5.5394629 C 19.5305,5.5764629 19.6655,5.3804629 19.8115,5.3874629 C 20.1065,5.4024629 19.9805,5.8174629 20.0925,6.0914629 C 20.1815,6.3074629 20.3235,6.4584629 20.3235,6.6454629 C 20.3235,6.8274629 20.1005,6.8114629 19.9185,6.8364629 M 18.1725,6.9764629 L 18.1265,7.2334629 L 18.3835,7.1264629 M 17.9955,6.5124629 L 17.7775,6.3114629 L 18.0685,6.2904629 M 18.4665,5.9374629 L 18.6275,5.6644629 L 18.7795,5.9464629 M 19.1075,6.9354629 L 19.1695,7.2384629 L 18.8895,7.1174629 M 19.1785,6.2644629 L 19.4555,6.3054629 L 19.2655,6.5084629 M 17.9825,6.5534629 C 17.9825,6.1994629 18.2695,5.9134629 18.6245,5.9134629 C 18.9785,5.9134629 19.2665,6.2004629 19.2665,6.5534629 C 19.2665,6.9074629 18.9785,7.1964629 18.6245,7.1964629 C 18.2695,7.1954629 17.9825,6.9074629 17.9825,6.5534629 z "
   style="fill:none;stroke:#793f11;stroke-width:0.063;stroke-miterlimit:3.86400008"
   id="path115" />
<polygon
   points="19.605,5.194 19.564,4.855 19.966,4.651 19.966,5.128 19.605,5.194 "
   transform="translate(-1.74998e-2,-1.453714e-2)"
   style="fill:#ffd200"
   id="polygon117" />
<polygon
   points="19.605,5.194 19.564,4.855 19.966,4.651 19.966,5.128 19.605,5.194 "
   transform="translate(-1.74998e-2,-1.453714e-2)"
   style="fill:none;stroke:#793f11;stroke-width:0.063;stroke-miterlimit:3.86400008"
   id="polygon119" />
<polygon
   points="17.048,7.056 16.866,7.429 16.395,7.322 16.7,6.95 17.048,7.056 "
   transform="translate(-1.74998e-2,-1.453714e-2)"
   style="fill:#ffd200"
   id="polygon121" />
<polygon
   points="17.048,7.056 16.866,7.429 16.395,7.322 16.7,6.95 17.048,7.056 "
   transform="translate(-1.74998e-2,-1.453714e-2)"
   style="fill:none;stroke:#793f11;stroke-width:0.063;stroke-miterlimit:3.86400008"
   id="polygon123" />
<polygon
   points="20.251,7.115 20.575,6.986 20.837,7.338 20.415,7.406 20.251,7.115 "
   transform="translate(-1.74998e-2,-1.453714e-2)"
   style="fill:#ffd200"
   id="polygon125" />
<polygon
   points="20.251,7.115 20.575,6.986 20.837,7.338 20.415,7.406 20.251,7.115 "
   transform="translate(-1.74998e-2,-1.453714e-2)"
   style="fill:none;stroke:#793f11;stroke-width:0.063;stroke-miterlimit:3.86400008"
   id="polygon127" />
<polygon
   points="18.697,8.24 18.913,8.498 18.7,8.945 18.45,8.472 18.697,8.24 "
   transform="translate(-1.74998e-2,-1.453714e-2)"
   style="fill:#ffd200"
   id="polygon129" />
<polygon
   points="18.697,8.24 18.913,8.498 18.7,8.945 18.45,8.472 18.697,8.24 "
   transform="translate(-1.74998e-2,-1.453714e-2)"
   style="fill:none;stroke:#793f11;stroke-width:0.063;stroke-miterlimit:3.86400008"
   id="polygon131" />
<path
   d="M 17.6175,5.2794629 C 17.6165,5.2614629 17.6125,5.2784629 17.6095,5.2624629"
   style="fill:none;stroke:#793f11;stroke-width:0.063;stroke-miterlimit:3.86400008"
   id="path133" />
<polygon
   points="18.642,5.736 18.488,6.022 18.124,6.337 17.863,6.353 18.07,6.53 18.218,7.007 18.183,7.193 18.418,7.103 18.89,7.095 19.15,7.206 19.076,6.941 19.208,6.556 19.407,6.345 19.159,6.304 18.773,5.98 18.642,5.736 "
   transform="translate(-1.74998e-2,-1.453714e-2)"
   style="fill:#ffd200;fill-rule:evenodd"
   id="polygon135" />
<polygon
   points="18.642,5.736 18.488,6.022 18.124,6.337 17.863,6.353 18.07,6.53 18.218,7.007 18.183,7.193 18.418,7.103 18.89,7.095 19.15,7.206 19.076,6.941 19.208,6.556 19.407,6.345 19.159,6.304 18.773,5.98 18.642,5.736 "
   transform="translate(-1.74998e-2,-1.453714e-2)"
   style="fill:none;stroke:#793f11;stroke-width:0.063;stroke-miterlimit:3.86400008"
   id="polygon137" />
<circle
   cx="18.635"
   cy="6.5739999"
   r="0.62300003"
   transform="translate(-1.74998e-2,-1.453714e-2)"
   style="fill:#ffd200"
   id="circle139" />
<circle
   cx="18.635"
   cy="6.5739999"
   r="0.62300003"
   transform="translate(-1.74998e-2,-1.453714e-2)"
   style="fill:none;stroke:#793f11;stroke-width:0.063;stroke-miterlimit:3.86400008"
   id="circle141" />
<circle
   cx="18.639"
   cy="6.5770001"
   r="0.373"
   transform="translate(-1.74998e-2,-1.453714e-2)"
   style="fill:#ffd200"
   id="circle143" />
<circle
   cx="18.639"
   cy="6.5770001"
   r="0.373"
   transform="translate(-1.74998e-2,-1.453714e-2)"
   style="fill:none;stroke:#793f11;stroke-width:0.063;stroke-miterlimit:3.86400008"
   id="circle145" />
</svg>