<?xml version="1.0" encoding="UTF-8" standalone="no"?>
<!-- Created with Inkscape (http://www.inkscape.org/) -->
<svg
   xmlns:svg="http://www.w3.org/2000/svg"
   xmlns="http://www.w3.org/2000/svg"
   xmlns:xlink="http://www.w3.org/1999/xlink"
   version="1.0"
   width="471.30298"
   height="219.93938"
   viewBox="0 0 32.058 14.937"
   id="Layer_1"
   xml:space="preserve"><defs
   id="defs206" />
<path
   d="M 31.956001,0.023368186 L 6.312,0.97736819 L 0.035,14.882365 L 30.806001,12.497365 C 30.806001,12.497365 28.683001,9.4783651 31.248001,6.4583651 C 31.249001,6.4593651 29.657001,2.6453681 31.956001,0.023368186 z "
   style="fill:#a2224b"
   id="path3" />
<path
   d="M 31.956001,0.023368186 L 6.312,0.97736819 L 0.035,14.882365 L 30.806001,12.497365 C 30.806001,12.497365 28.683001,9.4783651 31.248001,6.4583651 C 31.249001,6.4593651 29.657001,2.6453681 31.956001,0.023368186 z "
   style="fill:none;stroke:#a2224b;stroke-width:0.07;stroke-miterlimit:3.86400008"
   id="path5" />
<path
   d="M 30.010001,1.1363681 L 7.108,2.0893681 L 1.979,13.690365 L 29.038001,11.783365 C 29.038001,11.783365 27.615001,8.2133651 30.011001,6.5393651 C 30.010001,6.5393651 28.581001,2.9343681 30.010001,1.1363681 z "
   style="fill:white"
   id="path7" />
<path
   d="M 30.010001,1.1363681 L 7.108,2.0893681 L 1.979,13.690365 L 29.038001,11.783365 C 29.038001,11.783365 27.615001,8.2133651 30.011001,6.5393651 C 30.010001,6.5393651 28.581001,2.9343681 30.010001,1.1363681 z "
   style="fill:none;stroke:white;stroke-width:0.07;stroke-miterlimit:3.86400008"
   id="path9" />
<path
   d="M 28.981001,1.8423681 L 7.831,2.9343681 L 3.229,12.751365 L 27.951001,10.923365 C 27.951001,10.923365 26.606001,8.5473651 29.006001,6.4463651 C 29.005001,6.4463651 27.744001,3.5103651 28.981001,1.8423681 z "
   style="fill:#a2224b"
   id="path11" />
<path
   d="M 28.981001,1.8423681 L 7.831,2.9343681 L 3.229,12.751365 L 27.951001,10.923365 C 27.951001,10.923365 26.606001,8.5473651 29.006001,6.4463651 C 29.005001,6.4463651 27.744001,3.5103651 28.981001,1.8423681 z "
   style="fill:none;stroke:#a2224b;stroke-width:0.07;stroke-miterlimit:3.86400008"
   id="path13" />
<path
   d="M 27.615001,2.6403681 L 8.434,3.5993651 L 4.809,11.863365 L 26.651001,10.195365 C 26.651001,10.195365 26.616001,7.4633651 28.119001,6.5083651 C 28.119001,6.5083651 26.858001,4.0493651 27.615001,2.6403681 z "
   style="fill:white"
   id="path15" />
<path
   d="M 27.615001,2.6403681 L 8.434,3.5993651 L 4.809,11.863365 L 26.651001,10.195365 C 26.651001,10.195365 26.616001,7.4633651 28.119001,6.5083651 C 28.119001,6.5083651 26.858001,4.0493651 27.615001,2.6403681 z "
   style="fill:none;stroke:white;stroke-width:0.07;stroke-miterlimit:3.86400008"
   id="path17" />
<path
   d="M 26.690001,3.4203651 L 8.876,4.3933651 L 5.958,11.147365 L 25.826001,9.6393651 C 25.826001,9.6393651 26.262001,6.9663651 27.278001,6.5083651 C 27.279001,6.5083651 26.093001,4.2143651 26.690001,3.4203651 z "
   style="fill:#a2224b"
   id="path19" />
<path
   d="M 26.690001,3.4203651 L 8.876,4.3933651 L 5.958,11.147365 L 25.826001,9.6393651 C 25.826001,9.6393651 26.262001,6.9663651 27.278001,6.5083651 C 27.279001,6.5083651 26.093001,4.2143651 26.690001,3.4203651 z "
   style="fill:none;stroke:#a2224b;stroke-width:0.07;stroke-miterlimit:3.86400008"
   id="path21" />
<path
   d="M 7.28,8.5213651 L 6.325,10.879365 L 9.663,10.624365 L 9.418,10.314365 L 9.907,9.9923651 L 8.975,10.015365 L 9.535,9.5123651 L 11.546001,9.3633651 C 11.546001,9.3633651 11.127,9.0863651 11.174,9.0863651 C 11.22,9.0863651 11.453001,8.6833651 11.453001,8.6833651 L 10.548,8.8093651 L 11.861001,7.8523651 L 11.184,7.8183651 L 11.360001,7.2893651 L 10.047,8.0493651 L 10.175,7.3693651 L 9.721,7.6803651 L 9.511,7.4043651 L 8.988,8.8203651 L 7.653,9.5823651 L 7.931,8.4643651 L 7.43,8.8203651 L 7.28,8.5213651 z "
   style="fill:white;fill-rule:evenodd"
   id="path23" />
<path
   d="M 7.28,8.5213651 L 6.325,10.879365 L 9.663,10.624365 L 9.418,10.314365 L 9.907,9.9923651 L 8.975,10.015365 L 9.535,9.5123651 L 11.546001,9.3633651 C 11.546001,9.3633651 11.127,9.0863651 11.174,9.0863651 C 11.22,9.0863651 11.453001,8.6833651 11.453001,8.6833651 L 10.548,8.8093651 L 11.861001,7.8523651 L 11.184,7.8183651 L 11.360001,7.2893651 L 10.047,8.0493651 L 10.175,7.3693651 L 9.721,7.6803651 L 9.511,7.4043651 L 8.988,8.8203651 L 7.653,9.5823651 L 7.931,8.4643651 L 7.43,8.8203651 L 7.28,8.5213651 z "
   style="fill:none;stroke:white;stroke-width:0.069;stroke-miterlimit:3.86400008"
   id="path25" />
<polygon
   points="10.617,4.597 9.003,4.642 8.533,5.704 8.791,5.615 8.959,6.016 9.234,5.258 9.997,6.079 10.112,5.65 10.617,5.704 10.085,4.945 10.901,4.883 10.617,4.597 "
   transform="translate(-2.20004e-2,-1.467181e-2)"
   style="fill:white;fill-rule:evenodd"
   id="polygon27" />
<polygon
   points="10.617,4.597 9.003,4.642 8.533,5.704 8.791,5.615 8.959,6.016 9.234,5.258 9.997,6.079 10.112,5.65 10.617,5.704 10.085,4.945 10.901,4.883 10.617,4.597 "
   transform="translate(-2.20004e-2,-1.467181e-2)"
   style="fill:none;stroke:white;stroke-width:0.066;stroke-miterlimit:3.86400008"
   id="polygon29" />
<polygon
   points="13.411,5.875 13.057,5.81 12.96,5.381 13.444,5.527 13.411,5.875 "
   transform="translate(-2.20004e-2,-1.467181e-2)"
   style="fill:#ffd200"
   id="polygon31" />
<polygon
   points="13.411,5.875 13.057,5.81 12.96,5.381 13.444,5.527 13.411,5.875 "
   transform="translate(-2.20004e-2,-1.467181e-2)"
   style="fill:none;stroke:#793f11;stroke-width:0.063;stroke-miterlimit:3.86400008"
   id="polygon33" />
<path
   d="M 12.819001,7.6733651 C 12.336001,7.6733651 12.378001,7.1463651 12.490001,6.6983651 C 12.592001,6.2893651 12.802001,5.5993651 13.408001,5.9033651 C 13.308001,5.3243651 13.855001,5.1823651 14.316001,5.1823651 C 14.739001,5.1823651 15.483001,5.1983651 15.335001,5.8613651 C 15.865001,5.6053651 16.203001,6.0993651 16.330001,6.5423651 C 16.446001,6.9483651 16.635001,7.6683651 15.958001,7.7083651 C 16.379001,8.1183651 15.982001,8.5173651 15.610001,8.7883651 C 15.267001,9.0363651 14.717001,9.4383651 14.449001,8.8153651 C 14.171001,9.3333651 13.603001,9.1083651 13.241001,8.8253651 C 12.908001,8.5653651 12.369001,8.1553651 12.846001,7.6743651 C 12.846001,7.6733651 12.901001,7.6733651 12.819001,7.6733651 z "
   style="fill:#ffd200;fill-rule:evenodd"
   id="path35" />
<path
   d="M 12.819001,7.6733651 C 12.336001,7.6733651 12.378001,7.1463651 12.490001,6.6983651 C 12.592001,6.2893651 12.802001,5.5993651 13.408001,5.9033651 C 13.308001,5.3243651 13.855001,5.1823651 14.316001,5.1823651 C 14.739001,5.1823651 15.483001,5.1983651 15.335001,5.8613651 C 15.865001,5.6053651 16.203001,6.0993651 16.330001,6.5423651 C 16.446001,6.9483651 16.635001,7.6683651 15.958001,7.7083651 C 16.379001,8.1183651 15.982001,8.5173651 15.610001,8.7883651 C 15.267001,9.0363651 14.717001,9.4383651 14.449001,8.8153651 C 14.171001,9.3333651 13.603001,9.1083651 13.241001,8.8253651 C 12.908001,8.5653651 12.369001,8.1553651 12.846001,7.6743651 C 12.846001,7.6733651 12.901001,7.6733651 12.819001,7.6733651 z "
   style="fill:none;stroke:#793f11;stroke-width:0.063;stroke-miterlimit:3.86400008"
   id="path37" />
<g
   transform="translate(-2.20004e-2,-1.467181e-2)"
   id="g39">
	<defs
   id="defs41">
		<path
   d="M 13.792,7.216 C 13.792,6.862 14.079,6.574 14.434,6.574 C 14.788,6.574 15.075,6.861 15.075,7.216 C 15.075,7.571 14.788,7.858 14.434,7.858 C 14.079,7.857 13.792,7.57 13.792,7.216"
   id="XMLID_1_" />
	</defs>
	<clipPath
   id="XMLID_7_">
		<use
   id="use45"
   x="0"
   y="0"
   width="32.057999"
   height="14.937"
   xlink:href="#XMLID_1_" />
	</clipPath>
	<path
   d="M 15.072,7.21 L 15.072,7.21 C 15.071,7.564 14.784,7.852 14.43,7.852 C 14.076,7.852 13.788,7.564 13.788,7.21 C 13.788,6.856 14.075,6.568 14.43,6.568 C 14.784,6.568 15.071,6.855 15.072,7.21 M 15.245,7.216 C 15.245,6.76 14.875,6.391 14.42,6.391 C 13.966,6.391 13.597,6.76 13.597,7.216 C 13.597,7.671 13.966,8.039 14.42,8.039 C 14.875,8.039 15.245,7.671 15.245,7.216"
   style="fill:#ffd200"
   clip-path="url(#XMLID_7_)"
   id="path47" />
	<path
   d="M 14.889,7.21 L 14.889,7.21 C 14.889,7.462 14.684,7.667 14.431,7.667 C 14.178,7.667 13.973,7.462 13.973,7.21 C 13.973,6.958 14.178,6.752 14.431,6.752 C 14.684,6.752 14.889,6.958 14.889,7.21 M 15.062,7.216 C 15.062,6.862 14.775,6.574 14.42,6.574 C 14.066,6.574 13.779,6.861 13.779,7.216 C 13.779,7.57 14.066,7.857 14.42,7.857 C 14.774,7.856 15.062,7.569 15.062,7.216"
   style="fill:#ffdb5d"
   clip-path="url(#XMLID_7_)"
   id="path49" />
	<path
   d="M 14.705,7.21 L 14.705,7.21 C 14.705,7.361 14.582,7.484 14.431,7.484 C 14.279,7.484 14.156,7.361 14.156,7.21 C 14.156,7.058 14.279,6.936 14.431,6.936 C 14.582,6.936 14.705,7.058 14.705,7.21 M 14.878,7.216 C 14.878,6.963 14.673,6.758 14.42,6.758 C 14.167,6.758 13.962,6.963 13.962,7.216 C 13.962,7.468 14.167,7.673 14.42,7.673 C 14.673,7.673 14.878,7.468 14.878,7.216"
   style="fill:#ffe693"
   clip-path="url(#XMLID_7_)"
   id="path51" />
	<path
   d="M 14.522,7.21 L 14.522,7.21 C 14.522,7.261 14.481,7.302 14.43,7.302 C 14.379,7.302 14.338,7.261 14.338,7.21 C 14.338,7.159 14.379,7.118 14.43,7.118 C 14.481,7.118 14.522,7.159 14.522,7.21 M 14.695,7.216 C 14.695,7.064 14.572,6.941 14.42,6.941 C 14.269,6.941 14.146,7.064 14.146,7.216 C 14.146,7.367 14.269,7.49 14.42,7.49 C 14.572,7.49 14.695,7.367 14.695,7.216"
   style="fill:#fff1c7"
   clip-path="url(#XMLID_7_)"
   id="path53" />
	<path
   d="M 14.513,7.216 C 14.513,7.164 14.472,7.124 14.42,7.124 C 14.37,7.124 14.329,7.164 14.329,7.216 C 14.329,7.267 14.37,7.308 14.42,7.308 C 14.472,7.308 14.513,7.267 14.513,7.216"
   style="fill:white"
   clip-path="url(#XMLID_7_)"
   id="path55" />
</g>
<path
   d="M 14.578001,8.5783651 L 14.307001,8.5743651 C 14.236001,8.5843651 14.238001,8.7873651 14.128001,8.8613651 C 13.883001,9.0273651 13.729001,8.6273651 13.472001,8.4803651 C 13.269001,8.3653651 13.063001,8.3343651 12.949001,8.1863651 C 12.837001,8.0423651 13.026001,7.9323651 13.154001,7.8003651 L 13.130001,7.5363651 C 13.098001,7.4713651 12.905001,7.5383651 12.799001,7.4603651 C 12.563001,7.2823651 12.892001,7.0073651 12.947001,6.7163651 C 12.990001,6.4863651 12.952001,6.2823651 13.053001,6.1253651 C 13.153001,5.9733651 13.327001,6.1253651 13.493001,6.2033651 L 13.643001,6.0533651 C 13.698001,6.0053651 13.582001,5.8373651 13.631001,5.7143651 C 13.741001,5.4403651 14.092001,5.6863651 14.387001,5.6643651 C 14.621001,5.6463651 14.808001,5.5573651 14.987001,5.6153651 C 15.160001,5.6713651 15.075001,5.8793651 15.043001,6.0603651 M 15.736001,7.4653651 L 15.661001,7.7103651 C 15.647001,7.7823651 15.844001,7.8403651 15.883001,7.9663651 C 15.970001,8.2493651 15.542001,8.2793651 15.327001,8.4813651 C 15.156001,8.6423651 15.066001,8.8303651 14.891001,8.8963651 C 14.721001,8.9623651 14.647001,8.7213651 14.558001,8.5593651 M 15.044001,6.0213651 L 15.280001,6.1953651 M 15.255001,6.1853651 C 15.317001,6.2223651 15.452001,6.0263651 15.599001,6.0343651 C 15.894001,6.0483651 15.768001,6.4633651 15.880001,6.7373651 C 15.969001,6.9543651 16.112001,7.1053651 16.112001,7.2903651 C 16.112001,7.4743651 15.887001,7.4563651 15.706001,7.4813651 M 13.960001,7.6233651 L 13.914001,7.8803651 L 14.171001,7.7723651 M 13.783001,7.1603651 L 13.565001,6.9573651 L 13.856001,6.9353651 M 14.254001,6.5843651 L 14.415001,6.3113651 L 14.568001,6.5923651 M 14.895001,7.5823651 L 14.957001,7.8853651 L 14.677001,7.7633651 M 14.965001,6.9113651 L 15.243001,6.9513651 L 15.052001,7.1563651 M 13.770001,7.2013651 C 13.770001,6.8473651 14.057001,6.5593651 14.412001,6.5593651 C 14.766001,6.5593651 15.053001,6.8463651 15.053001,7.2013651 C 15.053001,7.5563651 14.766001,7.8433651 14.412001,7.8433651 C 14.057001,7.8423651 13.770001,7.5553651 13.770001,7.2013651 z "
   style="fill:none;stroke:#793f11;stroke-width:0.063;stroke-miterlimit:3.86400008"
   id="path57" />
<polygon
   points="15.397,5.842 15.356,5.502 15.759,5.299 15.759,5.775 15.397,5.842 "
   transform="translate(-2.20004e-2,-1.467181e-2)"
   style="fill:#ffd200"
   id="polygon59" />
<polygon
   points="15.397,5.842 15.356,5.502 15.759,5.299 15.759,5.775 15.397,5.842 "
   transform="translate(-2.20004e-2,-1.467181e-2)"
   style="fill:none;stroke:#793f11;stroke-width:0.063;stroke-miterlimit:3.86400008"
   id="polygon61" />
<polygon
   points="12.841,7.704 12.658,8.076 12.187,7.968 12.492,7.597 12.841,7.704 "
   transform="translate(-2.20004e-2,-1.467181e-2)"
   style="fill:#ffd200"
   id="polygon63" />
<polygon
   points="12.841,7.704 12.658,8.076 12.187,7.968 12.492,7.597 12.841,7.704 "
   transform="translate(-2.20004e-2,-1.467181e-2)"
   style="fill:none;stroke:#793f11;stroke-width:0.063;stroke-miterlimit:3.86400008"
   id="polygon65" />
<polygon
   points="16.043,7.763 16.367,7.634 16.629,7.985 16.207,8.052 16.043,7.763 "
   transform="translate(-2.20004e-2,-1.467181e-2)"
   style="fill:#ffd200"
   id="polygon67" />
<polygon
   points="16.043,7.763 16.367,7.634 16.629,7.985 16.207,8.052 16.043,7.763 "
   transform="translate(-2.20004e-2,-1.467181e-2)"
   style="fill:none;stroke:#793f11;stroke-width:0.063;stroke-miterlimit:3.86400008"
   id="polygon69" />
<polygon
   points="14.488,8.888 14.705,9.145 14.492,9.593 14.242,9.119 14.488,8.888 "
   transform="translate(-2.20004e-2,-1.467181e-2)"
   style="fill:#ffd200"
   id="polygon71" />
<polygon
   points="14.488,8.888 14.705,9.145 14.492,9.593 14.242,9.119 14.488,8.888 "
   transform="translate(-2.20004e-2,-1.467181e-2)"
   style="fill:none;stroke:#793f11;stroke-width:0.063;stroke-miterlimit:3.86400008"
   id="polygon73" />
<path
   d="M 13.406001,5.9263651 C 13.405001,5.9093651 13.401001,5.9253651 13.397001,5.9093651"
   style="fill:none;stroke:#793f11;stroke-width:0.063;stroke-miterlimit:3.86400008"
   id="path75" />
<polygon
   points="14.434,6.383 14.28,6.669 13.916,6.984 13.655,7 13.862,7.177 14.011,7.654 13.975,7.841 14.21,7.749 14.682,7.741 14.942,7.854 14.867,7.589 15,7.204 15.199,6.992 14.95,6.95 14.565,6.628 14.434,6.383 "
   transform="translate(-2.20004e-2,-1.467181e-2)"
   style="fill:#ffd200;fill-rule:evenodd"
   id="polygon77" />
<polygon
   points="14.434,6.383 14.28,6.669 13.916,6.984 13.655,7 13.862,7.177 14.011,7.654 13.975,7.841 14.21,7.749 14.682,7.741 14.942,7.854 14.867,7.589 15,7.204 15.199,6.992 14.95,6.95 14.565,6.628 14.434,6.383 "
   transform="translate(-2.20004e-2,-1.467181e-2)"
   style="fill:none;stroke:#793f11;stroke-width:0.063;stroke-miterlimit:3.86400008"
   id="polygon79" />
<circle
   cx="14.428"
   cy="7.2199998"
   r="0.62300003"
   transform="translate(-2.20004e-2,-1.467181e-2)"
   style="fill:#ffd200"
   id="circle81" />
<circle
   cx="14.428"
   cy="7.2199998"
   r="0.62300003"
   transform="translate(-2.20004e-2,-1.467181e-2)"
   style="fill:none;stroke:#793f11;stroke-width:0.063;stroke-miterlimit:3.86400008"
   id="circle83" />
<circle
   cx="14.431"
   cy="7.224"
   r="0.373"
   transform="translate(-2.20004e-2,-1.467181e-2)"
   style="fill:#ffd200"
   id="circle85" />
<circle
   cx="14.431"
   cy="7.224"
   r="0.373"
   transform="translate(-2.20004e-2,-1.467181e-2)"
   style="fill:none;stroke:#793f11;stroke-width:0.063;stroke-miterlimit:3.86400008"
   id="circle87" />
<polygon
   points="18.082,5.343 17.728,5.278 17.632,4.849 18.115,4.995 18.082,5.343 "
   transform="translate(-2.20004e-2,-1.467181e-2)"
   style="fill:#ffd200"
   id="polygon89" />
<polygon
   points="18.082,5.343 17.728,5.278 17.632,4.849 18.115,4.995 18.082,5.343 "
   transform="translate(-2.20004e-2,-1.467181e-2)"
   style="fill:none;stroke:#793f11;stroke-width:0.063;stroke-miterlimit:3.86400008"
   id="polygon91" />
<path
   d="M 17.490001,7.1403651 C 17.007001,7.1403651 17.049001,6.6133651 17.161001,6.1653651 C 17.263001,5.7563651 17.473001,5.0663651 18.079001,5.3713651 C 17.979001,4.7923651 18.526001,4.6493651 18.988001,4.6493651 C 19.410001,4.6493651 20.155001,4.6663651 20.006001,5.3283651 C 20.535001,5.0733651 20.873001,5.5663651 21.001001,6.0093651 C 21.117001,6.4153651 21.306001,7.1363651 20.629001,7.1753651 C 21.050001,7.5853651 20.654001,7.9843651 20.281001,8.2543651 C 19.938001,8.5013651 19.388001,8.9053651 19.120001,8.2823651 C 18.842001,8.8003651 18.274001,8.5753651 17.912001,8.2923651 C 17.579001,8.0323651 17.040001,7.6223651 17.516001,7.1403651 C 17.516001,7.1403651 17.572001,7.1403651 17.490001,7.1403651 z "
   style="fill:#ffd200;fill-rule:evenodd"
   id="path93" />
<path
   d="M 17.490001,7.1403651 C 17.007001,7.1403651 17.049001,6.6133651 17.161001,6.1653651 C 17.263001,5.7563651 17.473001,5.0663651 18.079001,5.3713651 C 17.979001,4.7923651 18.526001,4.6493651 18.988001,4.6493651 C 19.410001,4.6493651 20.155001,4.6663651 20.006001,5.3283651 C 20.535001,5.0733651 20.873001,5.5663651 21.001001,6.0093651 C 21.117001,6.4153651 21.306001,7.1363651 20.629001,7.1753651 C 21.050001,7.5853651 20.654001,7.9843651 20.281001,8.2543651 C 19.938001,8.5013651 19.388001,8.9053651 19.120001,8.2823651 C 18.842001,8.8003651 18.274001,8.5753651 17.912001,8.2923651 C 17.579001,8.0323651 17.040001,7.6223651 17.516001,7.1403651 C 17.516001,7.1403651 17.572001,7.1403651 17.490001,7.1403651 z "
   style="fill:none;stroke:#793f11;stroke-width:0.063;stroke-miterlimit:3.86400008"
   id="path95" />
<g
   transform="translate(-2.20004e-2,-1.467181e-2)"
   id="g97">
	<defs
   id="defs99">
		<path
   d="M 18.463,6.683 C 18.463,6.329 18.75,6.042 19.105,6.042 C 19.459,6.042 19.746,6.329 19.746,6.683 C 19.746,7.038 19.459,7.325 19.105,7.325 C 18.75,7.325 18.463,7.038 18.463,6.683"
   id="XMLID_3_" />
	</defs>
	<clipPath
   id="XMLID_8_">
		<use
   id="use103"
   x="0"
   y="0"
   width="32.057999"
   height="14.937"
   xlink:href="#XMLID_3_" />
	</clipPath>
	<path
   d="M 19.751,6.68 L 19.751,6.68 C 19.751,7.034 19.464,7.321 19.11,7.321 C 18.756,7.321 18.47,7.034 18.47,6.68 C 18.47,6.326 18.757,6.039 19.111,6.039 C 19.465,6.039 19.751,6.326 19.751,6.68 M 19.925,6.675 C 19.925,6.22 19.556,5.851 19.101,5.851 C 18.646,5.851 18.276,6.22 18.276,6.675 C 18.276,7.13 18.646,7.499 19.101,7.499 C 19.556,7.499 19.925,7.13 19.925,6.675"
   style="fill:#ffd200"
   clip-path="url(#XMLID_8_)"
   id="path105" />
	<path
   d="M 19.568,6.68 L 19.568,6.68 C 19.568,6.933 19.363,7.138 19.11,7.138 C 18.857,7.138 18.652,6.933 18.652,6.68 C 18.652,6.427 18.857,6.222 19.11,6.222 C 19.363,6.222 19.568,6.427 19.568,6.68 M 19.741,6.675 C 19.741,6.321 19.454,6.034 19.1,6.034 C 18.746,6.034 18.458,6.321 18.458,6.675 C 18.458,7.029 18.745,7.316 19.1,7.316 C 19.454,7.316 19.741,7.029 19.741,6.675"
   style="fill:#ffdb5d"
   clip-path="url(#XMLID_8_)"
   id="path107" />
	<path
   d="M 19.386,6.68 L 19.386,6.68 C 19.386,6.831 19.263,6.955 19.111,6.955 C 18.959,6.955 18.836,6.831 18.836,6.68 C 18.836,6.528 18.959,6.405 19.111,6.405 C 19.263,6.405 19.386,6.528 19.386,6.68 M 19.559,6.675 C 19.559,6.422 19.354,6.217 19.101,6.217 C 18.848,6.217 18.643,6.422 18.643,6.675 C 18.643,6.928 18.848,7.133 19.101,7.133 C 19.354,7.133 19.559,6.928 19.559,6.675"
   style="fill:#ffe693"
   clip-path="url(#XMLID_8_)"
   id="path109" />
	<path
   d="M 19.202,6.68 L 19.202,6.68 C 19.202,6.73 19.161,6.771 19.11,6.771 C 19.059,6.771 19.019,6.73 19.019,6.68 C 19.019,6.629 19.06,6.588 19.111,6.588 C 19.162,6.588 19.202,6.629 19.202,6.68 M 19.375,6.675 C 19.375,6.523 19.252,6.4 19.101,6.4 C 18.949,6.4 18.826,6.523 18.826,6.675 C 18.826,6.827 18.949,6.95 19.101,6.95 C 19.252,6.95 19.375,6.827 19.375,6.675"
   style="fill:#fff1c7"
   clip-path="url(#XMLID_8_)"
   id="path111" />
	<path
   d="M 19.192,6.675 C 19.192,6.624 19.15,6.583 19.1,6.583 C 19.049,6.583 19.008,6.624 19.008,6.675 C 19.008,6.725 19.049,6.766 19.1,6.766 C 19.15,6.766 19.192,6.725 19.192,6.675"
   style="fill:white"
   clip-path="url(#XMLID_8_)"
   id="path113" />
</g>
<path
   d="M 19.248001,8.0483651 L 18.978001,8.0433651 C 18.907001,8.0523651 18.909001,8.2563651 18.798001,8.3303651 C 18.554001,8.4963651 18.401001,8.0963651 18.143001,7.9493651 C 17.940001,7.8323651 17.735001,7.8023651 17.620001,7.6543651 C 17.508001,7.5113651 17.697001,7.4003651 17.825001,7.2693651 L 17.801001,7.0053651 C 17.769001,6.9393651 17.576001,7.0073651 17.470001,6.9283651 C 17.233001,6.7513651 17.562001,6.4753651 17.617001,6.1853651 C 17.661001,5.9553651 17.624001,5.7503651 17.724001,5.5943651 C 17.824001,5.4413651 17.998001,5.5933651 18.164001,5.6713651 L 18.314001,5.5213651 C 18.369001,5.4743651 18.253001,5.3053651 18.302001,5.1823651 C 18.412001,4.9083651 18.763001,5.1543651 19.058001,5.1323651 C 19.292001,5.1153651 19.479001,5.0253651 19.658001,5.0833651 C 19.831001,5.1393651 19.746001,5.3473651 19.714001,5.5273651 M 20.407001,6.9343651 L 20.332001,7.1793651 C 20.319001,7.2493651 20.515001,7.3083651 20.554001,7.4353651 C 20.641001,7.7173651 20.213001,7.7483651 19.998001,7.9513651 C 19.827001,8.1113651 19.738001,8.2993651 19.562001,8.3653651 C 19.392001,8.4303651 19.319001,8.1893651 19.229001,8.0293651 M 19.715001,5.4893651 L 19.951001,5.6633651 M 19.926001,5.6533651 C 19.989001,5.6903651 20.124001,5.4943651 20.270001,5.5013651 C 20.565001,5.5173651 20.439001,5.9323651 20.551001,6.2053651 C 20.640001,6.4223651 20.783001,6.5733651 20.783001,6.7603651 C 20.783001,6.9423651 20.558001,6.9253651 20.377001,6.9503651 M 18.631001,7.0913651 L 18.585001,7.3473651 L 18.842001,7.2403651 M 18.454001,6.6273651 L 18.237001,6.4253651 L 18.528001,6.4043651 M 18.925001,6.0523651 L 19.086001,5.7793651 L 19.239001,6.0603651 M 19.566001,7.0493651 L 19.628001,7.3533651 L 19.348001,7.2313651 M 19.637001,6.3803651 L 19.914001,6.4203651 L 19.723001,6.6243651 M 18.441001,6.6683651 C 18.441001,6.3143651 18.728001,6.0273651 19.083001,6.0273651 C 19.437001,6.0273651 19.724001,6.3143651 19.724001,6.6683651 C 19.724001,7.0233651 19.437001,7.3103651 19.083001,7.3103651 C 18.728001,7.3103651 18.441001,7.0233651 18.441001,6.6683651 z "
   style="fill:none;stroke:#793f11;stroke-width:0.063;stroke-miterlimit:3.86400008"
   id="path115" />
<polygon
   points="20.068,5.311 20.027,4.97 20.43,4.767 20.43,5.244 20.068,5.311 "
   transform="translate(-2.20004e-2,-1.467181e-2)"
   style="fill:#ffd200"
   id="polygon117" />
<polygon
   points="20.068,5.311 20.027,4.97 20.43,4.767 20.43,5.244 20.068,5.311 "
   transform="translate(-2.20004e-2,-1.467181e-2)"
   style="fill:none;stroke:#793f11;stroke-width:0.063;stroke-miterlimit:3.86400008"
   id="polygon119" />
<polygon
   points="17.512,7.173 17.329,7.544 16.857,7.438 17.163,7.064 17.512,7.173 "
   transform="translate(-2.20004e-2,-1.467181e-2)"
   style="fill:#ffd200"
   id="polygon121" />
<polygon
   points="17.512,7.173 17.329,7.544 16.857,7.438 17.163,7.064 17.512,7.173 "
   transform="translate(-2.20004e-2,-1.467181e-2)"
   style="fill:none;stroke:#793f11;stroke-width:0.063;stroke-miterlimit:3.86400008"
   id="polygon123" />
<polygon
   points="20.714,7.23 21.038,7.102 21.301,7.453 20.878,7.521 20.714,7.23 "
   transform="translate(-2.20004e-2,-1.467181e-2)"
   style="fill:#ffd200"
   id="polygon125" />
<polygon
   points="20.714,7.23 21.038,7.102 21.301,7.453 20.878,7.521 20.714,7.23 "
   transform="translate(-2.20004e-2,-1.467181e-2)"
   style="fill:none;stroke:#793f11;stroke-width:0.063;stroke-miterlimit:3.86400008"
   id="polygon127" />
<polygon
   points="19.16,8.355 19.376,8.612 19.163,9.061 18.913,8.587 19.16,8.355 "
   transform="translate(-2.20004e-2,-1.467181e-2)"
   style="fill:#ffd200"
   id="polygon129" />
<polygon
   points="19.16,8.355 19.376,8.612 19.163,9.061 18.913,8.587 19.16,8.355 "
   transform="translate(-2.20004e-2,-1.467181e-2)"
   style="fill:none;stroke:#793f11;stroke-width:0.063;stroke-miterlimit:3.86400008"
   id="polygon131" />
<path
   d="M 18.077001,5.3943651 C 18.076001,5.3773651 18.072001,5.3933651 18.069001,5.3783651"
   style="fill:none;stroke:#793f11;stroke-width:0.063;stroke-miterlimit:3.86400008"
   id="path133" />
<polygon
   points="19.104,5.853 18.951,6.137 18.587,6.452 18.326,6.468 18.533,6.646 18.682,7.122 18.646,7.31 18.88,7.218 19.353,7.21 19.613,7.321 19.539,7.056 19.671,6.672 19.87,6.46 19.621,6.419 19.236,6.096 19.104,5.853 "
   transform="translate(-2.20004e-2,-1.467181e-2)"
   style="fill:#ffd200;fill-rule:evenodd"
   id="polygon135" />
<polygon
   points="19.104,5.853 18.951,6.137 18.587,6.452 18.326,6.468 18.533,6.646 18.682,7.122 18.646,7.31 18.88,7.218 19.353,7.21 19.613,7.321 19.539,7.056 19.671,6.672 19.87,6.46 19.621,6.419 19.236,6.096 19.104,5.853 "
   transform="translate(-2.20004e-2,-1.467181e-2)"
   style="fill:none;stroke:#793f11;stroke-width:0.063;stroke-miterlimit:3.86400008"
   id="polygon137" />
<circle
   cx="19.099001"
   cy="6.6880002"
   r="0.62300003"
   transform="translate(-2.20004e-2,-1.467181e-2)"
   style="fill:#ffd200"
   id="circle139" />
<circle
   cx="19.099001"
   cy="6.6880002"
   r="0.62300003"
   transform="translate(-2.20004e-2,-1.467181e-2)"
   style="fill:none;stroke:#793f11;stroke-width:0.063;stroke-miterlimit:3.86400008"
   id="circle141" />
<circle
   cx="19.101999"
   cy="6.6919999"
   r="0.373"
   transform="translate(-2.20004e-2,-1.467181e-2)"
   style="fill:#ffd200"
   id="circle143" />
<circle
   cx="19.101999"
   cy="6.6919999"
   r="0.373"
   transform="translate(-2.20004e-2,-1.467181e-2)"
   style="fill:none;stroke:#793f11;stroke-width:0.063;stroke-miterlimit:3.86400008"
   id="circle145" />
<polygon
   points="22.792,5.201 22.438,5.136 22.343,4.708 22.825,4.854 22.792,5.201 "
   transform="translate(-2.20004e-2,-1.467181e-2)"
   style="fill:#ffd200"
   id="polygon147" />
<polygon
   points="22.792,5.201 22.438,5.136 22.343,4.708 22.825,4.854 22.792,5.201 "
   transform="translate(-2.20004e-2,-1.467181e-2)"
   style="fill:none;stroke:#793f11;stroke-width:0.063;stroke-miterlimit:3.86400008"
   id="polygon149" />
<path
   d="M 22.200001,6.9983651 C 21.718001,6.9983651 21.760001,6.4713651 21.871001,6.0243651 C 21.974001,5.6143651 22.183001,4.9243651 22.789001,5.2293651 C 22.689001,4.6503651 23.237001,4.5073651 23.698001,4.5073651 C 24.120001,4.5073651 24.865001,4.5243651 24.716001,5.1863651 C 25.246001,4.9313651 25.584001,5.4243651 25.711001,5.8673651 C 25.828001,6.2733651 26.017001,6.9943651 25.339001,7.0333651 C 25.760001,7.4433651 25.364001,7.8413651 24.991001,8.1133651 C 24.649001,8.3613651 24.098001,8.7643651 23.831001,8.1413651 C 23.552001,8.6583651 22.986001,8.4343651 22.622001,8.1503651 C 22.290001,7.8903651 21.750001,7.4803651 22.227001,6.9983651 C 22.227001,6.9983651 22.283001,6.9983651 22.200001,6.9983651 z "
   style="fill:#ffd200;fill-rule:evenodd"
   id="path151" />
<path
   d="M 22.200001,6.9983651 C 21.718001,6.9983651 21.760001,6.4713651 21.871001,6.0243651 C 21.974001,5.6143651 22.183001,4.9243651 22.789001,5.2293651 C 22.689001,4.6503651 23.237001,4.5073651 23.698001,4.5073651 C 24.120001,4.5073651 24.865001,4.5243651 24.716001,5.1863651 C 25.246001,4.9313651 25.584001,5.4243651 25.711001,5.8673651 C 25.828001,6.2733651 26.017001,6.9943651 25.339001,7.0333651 C 25.760001,7.4433651 25.364001,7.8413651 24.991001,8.1133651 C 24.649001,8.3613651 24.098001,8.7643651 23.831001,8.1413651 C 23.552001,8.6583651 22.986001,8.4343651 22.622001,8.1503651 C 22.290001,7.8903651 21.750001,7.4803651 22.227001,6.9983651 C 22.227001,6.9983651 22.283001,6.9983651 22.200001,6.9983651 z "
   style="fill:none;stroke:#793f11;stroke-width:0.063;stroke-miterlimit:3.86400008"
   id="path153" />
<g
   transform="translate(-2.20004e-2,-1.467181e-2)"
   id="g155">
	<defs
   id="defs157">
		<path
   d="M 23.173,6.542 C 23.173,6.187 23.46,5.9 23.816,5.9 C 24.17,5.9 24.457,6.187 24.457,6.542 C 24.457,6.896 24.17,7.182 23.816,7.182 C 23.46,7.183 23.173,6.896 23.173,6.542"
   id="XMLID_5_" />
	</defs>
	<clipPath
   id="XMLID_9_">
		<use
   id="use161"
   x="0"
   y="0"
   width="32.057999"
   height="14.937"
   xlink:href="#XMLID_5_" />
	</clipPath>
	<path
   d="M 24.457,6.542 L 24.457,6.542 C 24.456,6.896 24.169,7.183 23.815,7.183 C 23.461,7.183 23.174,6.896 23.174,6.542 C 23.174,6.188 23.461,5.9 23.815,5.9 C 24.169,5.9 24.456,6.188 24.457,6.542 M 24.636,6.555 C 24.636,6.1 24.266,5.731 23.811,5.731 C 23.356,5.731 22.986,6.1 22.986,6.555 C 22.986,7.01 23.355,7.38 23.81,7.38 C 24.265,7.38 24.636,7.01 24.636,6.555"
   style="fill:#ffd200"
   clip-path="url(#XMLID_9_)"
   id="path163" />
	<path
   d="M 24.273,6.542 L 24.273,6.542 C 24.273,6.794 24.068,7 23.815,7 C 23.562,7 23.357,6.795 23.357,6.542 C 23.357,6.289 23.562,6.084 23.815,6.084 C 24.068,6.084 24.273,6.288 24.273,6.542 M 24.451,6.555 C 24.451,6.201 24.164,5.914 23.81,5.914 C 23.456,5.914 23.168,6.201 23.168,6.555 C 23.168,6.909 23.455,7.196 23.81,7.196 C 24.164,7.196 24.451,6.909 24.451,6.555"
   style="fill:#ffdb5d"
   clip-path="url(#XMLID_9_)"
   id="path165" />
	<path
   d="M 24.091,6.542 L 24.091,6.542 C 24.091,6.694 23.968,6.817 23.816,6.817 C 23.664,6.817 23.54,6.693 23.54,6.542 C 23.54,6.39 23.663,6.267 23.815,6.267 C 23.967,6.267 24.091,6.389 24.091,6.542 M 24.269,6.555 C 24.269,6.302 24.064,6.097 23.811,6.097 C 23.558,6.097 23.353,6.302 23.353,6.555 C 23.353,6.808 23.558,7.013 23.811,7.013 C 24.064,7.013 24.269,6.808 24.269,6.555"
   style="fill:#ffe693"
   clip-path="url(#XMLID_9_)"
   id="path167" />
	<path
   d="M 23.907,6.542 L 23.907,6.542 C 23.907,6.593 23.866,6.634 23.815,6.634 C 23.765,6.634 23.724,6.593 23.724,6.542 C 23.724,6.492 23.765,6.45 23.815,6.45 C 23.866,6.449 23.907,6.491 23.907,6.542 M 24.115,6.555 C 24.115,6.403 23.992,6.28 23.841,6.28 C 23.689,6.28 23.566,6.403 23.566,6.555 C 23.566,6.707 23.689,6.83 23.841,6.83 C 23.992,6.83 24.115,6.708 24.115,6.555"
   style="fill:#fff1c7"
   clip-path="url(#XMLID_9_)"
   id="path169" />
	<path
   d="M 23.933,6.555 C 23.933,6.504 23.892,6.463 23.841,6.463 C 23.79,6.463 23.748,6.504 23.748,6.555 C 23.748,6.605 23.79,6.647 23.841,6.647 C 23.892,6.647 23.933,6.605 23.933,6.555"
   style="fill:white"
   clip-path="url(#XMLID_9_)"
   id="path171" />
</g>
<path
   d="M 23.958001,7.9063651 L 23.688001,7.9003651 C 23.617001,7.9103651 23.618001,8.1133651 23.508001,8.1873651 C 23.263001,8.3533651 23.111001,7.9533651 22.853001,7.8063651 C 22.650001,7.6903651 22.445001,7.6603651 22.330001,7.5123651 C 22.218001,7.3683651 22.406001,7.2583651 22.534001,7.1263651 L 22.510001,6.8623651 C 22.479001,6.7983651 22.286001,6.8653651 22.180001,6.7863651 C 21.944001,6.6093651 22.272001,6.3333651 22.327001,6.0433651 C 22.371001,5.8133651 22.333001,5.6083651 22.434001,5.4523651 C 22.534001,5.2993651 22.707001,5.4513651 22.874001,5.5293651 L 23.024001,5.3793651 C 23.079001,5.3323651 22.962001,5.1633651 23.011001,5.0403651 C 23.121001,4.7663651 23.473001,5.0123651 23.767001,4.9903651 C 24.001001,4.9733651 24.189001,4.8833651 24.368001,4.9413651 C 24.541001,4.9973651 24.456001,5.2053651 24.423001,5.3863651 M 25.118001,6.7913651 L 25.042001,7.0373651 C 25.030001,7.1093651 25.225001,7.1653651 25.264001,7.2923651 C 25.352001,7.5753651 24.924001,7.6053651 24.708001,7.8083651 C 24.538001,7.9683651 24.448001,8.1563651 24.273001,8.2233651 C 24.103001,8.2883651 24.029001,8.0473651 23.940001,7.8863651 M 24.426001,5.3473651 L 24.662001,5.5213651 M 24.637001,5.5113651 C 24.700001,5.5483651 24.834001,5.3523651 24.980001,5.3603651 C 25.276001,5.3753651 25.151001,5.7903651 25.262001,6.0633651 C 25.351001,6.2803651 25.494001,6.4313651 25.494001,6.6183651 C 25.494001,6.8003651 25.269001,6.7833651 25.088001,6.8083651 M 23.342001,6.9493651 L 23.296001,7.2053651 L 23.552001,7.0993651 M 23.164001,6.4853651 L 22.948001,6.2833651 L 23.239001,6.2623651 M 23.635001,5.9103651 L 23.797001,5.6373651 L 23.950001,5.9183651 M 24.278001,6.9073651 L 24.338001,7.2113651 L 24.058001,7.0893651 M 24.347001,6.2373651 L 24.624001,6.2773651 L 24.434001,6.4813651 M 23.151001,6.5273651 C 23.151001,6.1723651 23.438001,5.8853651 23.794001,5.8853651 C 24.148001,5.8853651 24.435001,6.1723651 24.435001,6.5273651 C 24.435001,6.8813651 24.148001,7.1673651 23.794001,7.1673651 C 23.438001,7.1683651 23.151001,6.8813651 23.151001,6.5273651 z "
   style="fill:none;stroke:#793f11;stroke-width:0.063;stroke-miterlimit:3.86400008"
   id="path173" />
<polygon
   points="24.779,5.168 24.737,4.828 25.141,4.625 25.141,5.102 24.779,5.168 "
   transform="translate(-2.20004e-2,-1.467181e-2)"
   style="fill:#ffd200"
   id="polygon175" />
<polygon
   points="24.779,5.168 24.737,4.828 25.141,4.625 25.141,5.102 24.779,5.168 "
   transform="translate(-2.20004e-2,-1.467181e-2)"
   style="fill:none;stroke:#793f11;stroke-width:0.063;stroke-miterlimit:3.86400008"
   id="polygon177" />
<polygon
   points="22.222,7.03 22.039,7.402 21.567,7.296 21.874,6.922 22.222,7.03 "
   transform="translate(-2.20004e-2,-1.467181e-2)"
   style="fill:#ffd200"
   id="polygon179" />
<polygon
   points="22.222,7.03 22.039,7.402 21.567,7.296 21.874,6.922 22.222,7.03 "
   transform="translate(-2.20004e-2,-1.467181e-2)"
   style="fill:none;stroke:#793f11;stroke-width:0.063;stroke-miterlimit:3.86400008"
   id="polygon181" />
<polygon
   points="25.425,7.089 25.748,6.959 26.011,7.312 25.588,7.378 25.425,7.089 "
   transform="translate(-2.20004e-2,-1.467181e-2)"
   style="fill:#ffd200"
   id="polygon183" />
<polygon
   points="25.425,7.089 25.748,6.959 26.011,7.312 25.588,7.378 25.425,7.089 "
   transform="translate(-2.20004e-2,-1.467181e-2)"
   style="fill:none;stroke:#793f11;stroke-width:0.063;stroke-miterlimit:3.86400008"
   id="polygon185" />
<polygon
   points="23.87,8.214 24.087,8.47 23.873,8.919 23.623,8.445 23.87,8.214 "
   transform="translate(-2.20004e-2,-1.467181e-2)"
   style="fill:#ffd200"
   id="polygon187" />
<polygon
   points="23.87,8.214 24.087,8.47 23.873,8.919 23.623,8.445 23.87,8.214 "
   transform="translate(-2.20004e-2,-1.467181e-2)"
   style="fill:none;stroke:#793f11;stroke-width:0.063;stroke-miterlimit:3.86400008"
   id="polygon189" />
<path
   d="M 22.788001,5.2523651 C 22.786001,5.2353651 22.782001,5.2513651 22.780001,5.2353651"
   style="fill:none;stroke:#793f11;stroke-width:0.063;stroke-miterlimit:3.86400008"
   id="path191" />
<polygon
   points="23.815,5.71 23.661,5.995 23.298,6.311 23.037,6.326 23.244,6.503 23.393,6.98 23.355,7.167 23.592,7.076 24.063,7.067 24.324,7.179 24.249,6.914 24.383,6.53 24.58,6.318 24.332,6.277 23.947,5.954 23.815,5.71 "
   transform="translate(-2.20004e-2,-1.467181e-2)"
   style="fill:#ffd200;fill-rule:evenodd"
   id="polygon193" />
<polygon
   points="23.815,5.71 23.661,5.995 23.298,6.311 23.037,6.326 23.244,6.503 23.393,6.98 23.355,7.167 23.592,7.076 24.063,7.067 24.324,7.179 24.249,6.914 24.383,6.53 24.58,6.318 24.332,6.277 23.947,5.954 23.815,5.71 "
   transform="translate(-2.20004e-2,-1.467181e-2)"
   style="fill:none;stroke:#793f11;stroke-width:0.063;stroke-miterlimit:3.86400008"
   id="polygon195" />
<circle
   cx="23.809"
   cy="6.546"
   r="0.62300003"
   transform="translate(-2.20004e-2,-1.467181e-2)"
   style="fill:#ffd200"
   id="circle197" />
<circle
   cx="23.809"
   cy="6.546"
   r="0.62300003"
   transform="translate(-2.20004e-2,-1.467181e-2)"
   style="fill:none;stroke:#793f11;stroke-width:0.063;stroke-miterlimit:3.86400008"
   id="circle199" />
<circle
   cx="23.813"
   cy="6.5500002"
   r="0.373"
   transform="translate(-2.20004e-2,-1.467181e-2)"
   style="fill:#ffd200"
   id="circle201" />
<circle
   cx="23.813"
   cy="6.5500002"
   r="0.373"
   transform="translate(-2.20004e-2,-1.467181e-2)"
   style="fill:none;stroke:#793f11;stroke-width:0.063;stroke-miterlimit:3.86400008"
   id="circle203" />
</svg>